<?xml version="1.0" standalone="no"?>
<!DOCTYPE svg PUBLIC "-//W3C//DTD SVG 20010904//EN"
 "http://www.w3.org/TR/2001/REC-SVG-20010904/DTD/svg10.dtd">
<svg version="1.0" xmlns="http://www.w3.org/2000/svg"
 width="512.000000pt" height="512.000000pt" viewBox="0 0 512.000000 512.000000"
 preserveAspectRatio="xMidYMid meet">
<metadata>
Created by potrace 1.14, written by Peter Selinger 2001-2017
</metadata>
<g transform="translate(0.000000,512.000000) scale(0.100000,-0.100000)"
fill="#000000" stroke="none">
<path d="M2268 5105 c-424 -53 -828 -206 -1165 -441 -338 -235 -650 -592 -814
-929 l-44 -90 6 -400 c9 -580 9 -1629 0 -1708 l-7 -68 58 -110 c114 -217 243
-393 422 -578 397 -408 867 -653 1446 -752 181 -31 589 -34 770 -6 748 117
1387 536 1794 1177 71 112 188 352 234 482 52 147 107 370 129 523 24 167 24
544 0 710 -39 268 -117 523 -231 760 -84 175 -146 276 -264 435 -105 140 -349
387 -486 489 -352 264 -741 430 -1166 496 -144 23 -538 29 -682 10z m977
-1110 c126 -9 249 -20 273 -27 73 -19 132 -109 118 -181 -3 -18 -40 -120 -81
-227 -41 -107 -75 -203 -75 -213 0 -10 95 -180 211 -378 227 -388 244 -421
254 -489 10 -66 -65 -435 -102 -502 -57 -105 -116 -136 -332 -177 -90 -16
-164 -32 -165 -33 -43 -67 -108 -146 -148 -181 -117 -99 -339 -227 -507 -292
-145 -56 -807 -217 -889 -216 -93 1 -183 56 -222 136 -27 55 -202 651 -224
760 -31 158 -40 263 -40 445 0 209 9 266 61 388 19 45 33 90 30 100 -3 9 -29
84 -57 166 -47 132 -52 156 -47 207 9 107 40 153 187 285 167 150 221 191 273
205 30 9 172 11 494 10 l451 -3 56 79 c77 108 77 108 116 132 42 25 62 26 365
6z m-2968 -2362 c-1 -54 -3 -10 -3 97 0 107 2 151 3 98 2 -54 2 -142 0 -195z
m5 -153 c-6 -43 -12 -37 -12 13 0 25 4 37 8 29 5 -7 7 -26 4 -42z"/>
<path d="M2947 3684 c-31 -44 -65 -90 -78 -103 -48 -51 -54 -52 -564 -51
l-475 1 -135 -118 c-74 -64 -137 -125 -140 -134 -3 -10 24 -101 60 -203 36
-103 65 -198 65 -213 0 -15 -18 -56 -39 -93 -63 -105 -74 -159 -74 -355 0
-261 18 -356 143 -780 93 -315 89 -305 106 -305 33 0 714 170 777 194 169 65
428 221 485 294 16 20 42 61 58 91 16 29 41 62 56 72 18 13 91 31 220 55 106
19 199 41 206 47 6 7 28 94 48 194 l36 181 -209 358 c-260 444 -255 434 -261
514 -4 61 0 76 57 228 33 90 61 167 61 171 0 5 -44 11 -97 15 -54 3 -132 9
-174 12 l-77 6 -55 -78z"/>
<path d="M12 2810 c0 -14 2 -19 5 -12 2 6 2 18 0 25 -3 6 -5 1 -5 -13z"/>
<path d="M3 2660 c0 -30 2 -43 4 -27 2 15 2 39 0 55 -2 15 -4 2 -4 -28z"/>
<path d="M3 2460 c0 -30 2 -43 4 -27 2 15 2 39 0 55 -2 15 -4 2 -4 -28z"/>
<path d="M12 2310 c0 -14 2 -19 5 -12 2 6 2 18 0 25 -3 6 -5 1 -5 -13z"/>
</g>
</svg>
